<svg xmlns="http://www.w3.org/2000/svg" viewBox="0 0 128 128" role="img" aria-labelledby="title">
  <title id="title">Eclipse Library</title>
  <rect width="128" height="128" rx="28" fill="#0C1117"/>
  <path fill="#F2F5F9" d="M69 13C38 13 15 37 15 68c0 24 15 44 37 52-17-12-26-30-24-51 2-24 19-41 42-43 20-2 38 10 44 28-4-24-22-41-45-41Z"/>
  <path fill="none" stroke="#D4AF37" stroke-linecap="round" stroke-width="4.5" d="M69 15c12 0 22 3 30 10"/>
  <path fill="none" stroke="#F2F5F9" stroke-linejoin="round" stroke-width="9" d="M23 78c17 0 31 7 41 21 10-14 24-21 41-21"/>
  <path fill="none" stroke="#F2F5F9" stroke-linejoin="round" stroke-width="6" d="M27 92c15 1 27 7 37 19 10-12 22-18 37-19"/>
  <path fill="#6BA3FF" d="M58 101 64 108l6-7v22l-6-4.5-6 4.5Z"/>
</svg>
